<?xml version="1.0" standalone="no"?>
<!DOCTYPE svg PUBLIC "-//W3C//DTD SVG 20010904//EN"
 "http://www.w3.org/TR/2001/REC-SVG-20010904/DTD/svg10.dtd">
<svg version="1.0" xmlns="http://www.w3.org/2000/svg"
 width="1280.000000pt" height="964.000000pt" viewBox="0 0 1280.000000 964.000000"
 preserveAspectRatio="xMidYMid meet">
<metadata>
Created by potrace 1.15, written by Peter Selinger 2001-2017
</metadata>
<g transform="translate(0.000000,964.000000) scale(0.100000,-0.100000)"
fill="#000000" stroke="none">
<path d="M8397 9404 c-16 -121 -50 -390 -77 -599 -27 -209 -92 -717 -145
-1128 -53 -412 -94 -751 -92 -753 3 -3 45 3 93 13 119 23 394 23 508 0 44 -9
80 -16 81 -14 3 3 -332 2673 -337 2687 -2 7 -16 -86 -31 -206z"/>
<path d="M10224 7364 c-417 -322 -767 -593 -776 -602 -16 -16 -13 -21 64 -77
86 -64 175 -155 230 -235 18 -27 36 -48 40 -47 4 1 248 313 544 692 295 380
566 727 601 773 36 45 63 82 61 82 -3 0 -346 -264 -764 -586z"/>
<path d="M5850 7787 c0 -4 210 -278 466 -609 256 -332 525 -680 597 -775 73
-94 134 -172 137 -172 3 -1 18 20 35 47 42 66 178 206 253 260 35 24 60 48 55
52 -4 4 -345 270 -758 590 -412 320 -758 589 -767 598 -10 8 -18 12 -18 9z"/>
<path d="M8345 6654 c-342 -35 -649 -175 -883 -405 -259 -255 -409 -576 -429
-921 -3 -60 -9 -108 -13 -108 -3 0 -22 16 -41 36 -18 19 -73 65 -121 101 -100
75 -98 70 -73 199 8 43 13 80 10 83 -3 2 -82 -5 -175 -17 l-171 -21 -97 39
c-241 97 -500 152 -799 170 -336 20 -685 -27 -990 -131 l-113 -39 -85 14 c-46
7 -93 19 -104 27 -195 142 -302 207 -462 279 -732 329 -1616 247 -2259 -210
-473 -336 -765 -839 -799 -1373 -16 -253 26 -528 114 -748 5 -13 -10 -21 -82
-43 -323 -99 -593 -339 -706 -626 -209 -531 99 -1123 680 -1310 217 -70 430
-78 678 -25 29 6 31 5 75 -86 143 -293 379 -607 625 -829 406 -368 888 -598
1426 -681 206 -32 571 -33 774 -1 600 94 1121 363 1545 799 187 191 331 386
460 620 l62 111 66 -44 c186 -125 392 -186 631 -186 312 0 582 108 787 317
l80 82 81 -5 c93 -5 216 10 310 39 36 11 67 19 68 17 2 -2 28 -196 57 -431 29
-235 55 -427 58 -427 3 0 18 100 33 222 15 123 44 349 64 503 l36 280 61 67
c231 254 276 587 119 878 l-46 85 11 95 c7 52 25 198 41 325 17 126 28 231 26
233 -1 2 -20 -1 -41 -6 -22 -6 -54 -13 -71 -16 l-33 -6 0 119 0 118 88 23
c468 122 853 482 1001 937 56 171 66 240 66 448 0 208 -11 283 -66 450 -160
485 -584 858 -1090 956 -96 18 -305 31 -384 23z"/>
<path d="M10060 5637 c0 -2 7 -26 15 -53 40 -136 58 -413 36 -564 -5 -30 -7
-57 -5 -59 1 -1 604 106 1338 240 735 133 1334 244 1333 246 -3 3 -2652 193
-2693 193 -13 0 -24 -1 -24 -3z"/>
<path d="M9827 4011 c-70 -94 -136 -158 -230 -224 -31 -23 -54 -44 -50 -48 28
-24 1543 -1199 1548 -1199 3 0 -18 30 -48 68 -38 48 -1136 1467 -1152 1490 -1
1 -31 -38 -68 -87z"/>
</g>
</svg>
